<?xml version="1.0" encoding="UTF-8"?>
<!DOCTYPE svg PUBLIC "-//W3C//DTD SVG 1.1//EN" "http://www.w3.org/Graphics/SVG/1.1/DTD/svg11.dtd">
<!-- Creator: CorelDRAW X7 -->
<svg xmlns="http://www.w3.org/2000/svg" xml:space="preserve" width="148mm" height="105mm" version="1.1" style="shape-rendering:geometricPrecision; text-rendering:geometricPrecision; image-rendering:optimizeQuality; fill-rule:evenodd; clip-rule:evenodd"
viewBox="0 0 14800 10500"
 xmlns:xlink="http://www.w3.org/1999/xlink">
 <defs>
  <style type="text/css">
   <![CDATA[
    .fil3 {fill:#FEFEFE}
    .fil25 {fill:#EEEEEF}
    .fil12 {fill:#B6B6B7}
    .fil31 {fill:#8B8B8C}
    .fil13 {fill:#5F5D5D}
    .fil14 {fill:#474443}
    .fil21 {fill:#332C2B}
    .fil22 {fill:#F08519}
    .fil11 {fill:#ED797E}
    .fil8 {fill:#EA5D61}
    .fil9 {fill:#E95A6F}
    .fil6 {fill:#E83F44}
    .fil15 {fill:#B04B87}
    .fil10 {fill:#C92B2F}
    .fil23 {fill:#B46331}
    .fil32 {fill:#A92F33}
    .fil7 {fill:#A43033}
    .fil0 {fill:#A0D9F6}
    .fil2 {fill:#A7D294}
    .fil16 {fill:#963F72}
    .fil24 {fill:#7B9E6D}
    .fil30 {fill:#5FA776}
    .fil4 {fill:#6C94A9}
    .fil17 {fill:#703357}
    .fil18 {fill:#6A2F51}
    .fil19 {fill:#5B2C47}
    .fil28 {fill:#509265}
    .fil29 {fill:#427A55}
    .fil27 {fill:#386440}
    .fil26 {fill:#376446}
    .fil1 {fill:#00A2E9}
    .fil20 {fill:#FEFEFE;fill-rule:nonzero}
    .fil5 {fill:#332C2B;fill-rule:nonzero}
   ]]>
  </style>
 </defs>
 <g id="Layer_x0020_1">
  <metadata id="CorelCorpID_0Corel-Layer"/>
  <g id="_358314416">
   <polygon class="fil0" points="400,350 14400,350 14400,10150 400,10150 "/>
   <path class="fil1" d="M400 350l8644 0c-142,652 -727,1387 -1218,1708 -693,454 -1701,681 -2407,693 -604,11 -4039,-448 -5019,-581l0 -1820z"/>
   <path class="fil2" d="M400 7018l0 -4006 5922 2846 -33 3291 -2840 -133c0,0 113,-869 -180,-1370 -294,-501 -834,-619 -834,-619l-2035 -9z"/>
   <polygon class="fil2" points="400,350 8417,350 8080,1079 7348,1736 5466,2115 1690,1799 400,1594 "/>
   <path class="fil2" d="M11976 1791c587,0 1063,476 1063,1063 0,587 -476,1063 -1063,1063 -587,0 -1063,-476 -1063,-1063 0,-587 476,-1063 1063,-1063z"/>
   <path class="fil3" d="M6125 5802l-25 3334 379 26c0,0 16,-3441 23,-3332 8,108 -377,-28 -377,-28z"/>
   <path class="fil3" d="M8194 350l447 0c-130,375 -512,1201 -1432,1613 -1213,543 -2425,392 -2425,392 0,0 -3653,-428 -4384,-524l0 -402c618,71 4328,547 4725,547 429,0 1654,-126 2210,-530 556,-404 859,-1096 859,-1096z"/>
   <path class="fil3" d="M8939 3933c-33,-72 -1756,-2134 -1756,-2134l-378 101c0,0 1875,2237 1780,2210 -95,-27 354,-177 354,-177z"/>
   <path class="fil3" d="M11620 350l341 0c12,369 44,1324 46,1222 3,-126 -315,114 -315,114l-72 -1336z"/>
   <polygon class="fil3" points="14400,2564 14400,2923 13220,2847 13341,2508 "/>
   <path class="fil3" d="M11164 10150l-336 0c42,-376 235,-1830 235,-1830l351 -194c21,66 -190,1634 -250,2024z"/>
   <path class="fil3" d="M10732 2898l-2185 985c0,0 -499,1758 -505,1667 -6,-92 404,25 404,25l442 -1465 1907 -858 -63 -354z"/>
   <polygon class="fil3" points="11755,4110 11805,5360 12238,5556 12171,3971 "/>
   <path class="fil3" d="M3218 8896c3,-76 76,-492 -76,-934 -151,-442 -593,-695 -593,-695l358 -173c0,0 576,401 677,931 101,530 -25,1048 -25,1048l-341 -177z"/>
   <path class="fil3" d="M3075 10150l-382 0c21,-318 62,-970 65,-1064l404 -13 -87 1077z"/>
   <polygon class="fil3" points="10896,5424 11414,7974 11060,8075 10505,5436 "/>
   <polygon class="fil3" points="14400,6873 14400,7277 7726,9364 400,9119 400,8733 7726,8959 "/>
   <polygon class="fil3" points="400,7267 400,6888 2562,6888 3635,4527 4001,4729 2827,7267 "/>
   <polygon class="fil3" points="14400,5015 14400,5404 6224,5979 400,3199 400,2751 6363,5575 "/>
   <path class="fil3" d="M11976 1446c777,0 1408,630 1408,1408 0,777 -631,1408 -1408,1408 -778,0 -1408,-631 -1408,-1408 0,-778 630,-1408 1408,-1408zm0 379c568,0 1029,460 1029,1029 0,568 -461,1029 -1029,1029 -569,0 -1029,-461 -1029,-1029 0,-569 460,-1029 1029,-1029z"/>
   <g>
    <path class="fil4" d="M9459 2788c358,0 647,55 647,123 0,67 -289,122 -647,122 -357,0 -647,-55 -647,-122 0,-68 290,-123 647,-123z"/>
    <g>
     <g>
      <path class="fil5" d="M9230 1801l0 -99 -75 -118 67 0 30 56c0,0 0,0 1,1 3,6 5,12 6,17 1,-5 3,-10 6,-16 1,-1 1,-2 1,-2l29 -56 68 0 -75 118 0 99 -58 0zm361 -108c0,15 -3,30 -9,44 -6,13 -14,25 -25,36 -11,11 -24,19 -38,25 -14,6 -29,8 -44,8 -16,0 -31,-2 -45,-8 -14,-6 -26,-14 -37,-25 -11,-11 -20,-23 -26,-37 -5,-13 -8,-28 -8,-43 0,-16 3,-30 8,-44 6,-14 15,-26 26,-37 11,-11 23,-19 37,-25 14,-5 29,-8 45,-8 15,0 30,3 44,8 15,6 27,14 38,25 11,11 19,23 25,37 6,13 9,28 9,44zm-116 63c16,0 30,-6 40,-18 11,-12 17,-27 17,-45 0,-19 -6,-34 -17,-46 -11,-12 -24,-18 -40,-18 -17,0 -30,6 -41,18 -11,12 -16,27 -16,46 0,18 5,33 16,45 10,12 24,18 41,18zm152 -172l58 0 0 105c0,16 1,27 2,34 0,6 2,12 4,17 2,5 6,9 12,12 5,3 12,5 20,5 8,0 15,-2 21,-5 5,-3 9,-7 12,-12 1,-5 3,-11 4,-17 0,-7 1,-18 1,-34l0 -15 0 -90 59 0 0 114c0,24 -2,42 -5,53 -3,11 -7,21 -14,29 -8,9 -18,16 -31,20 -13,4 -28,6 -47,6 -18,0 -34,-2 -47,-6 -13,-4 -23,-11 -31,-20 -6,-8 -11,-18 -14,-29 -3,-11 -4,-29 -4,-53l0 -22 0 -92z"/>
      <path class="fil5" d="M9252 1985l68 0 -26 -83c-1,-2 -2,-6 -3,-12 -1,-6 -3,-13 -5,-22 -2,6 -3,12 -5,18 -1,6 -3,11 -4,16l-25 83zm-96 94l86 -251 86 0 87 251 -68 0 -13 -45 -97 0 -13 45 -68 0zm283 0l0 -251 72 0c28,0 47,1 58,3 11,3 21,7 29,13 9,7 16,16 21,27 5,10 7,22 7,35 0,19 -5,35 -14,47 -10,12 -24,21 -42,25l68 101 -77 0 -58 -99 0 99 -64 0zm64 -133l13 0c15,0 26,-2 32,-7 7,-5 11,-13 11,-24 0,-12 -4,-21 -10,-27 -6,-5 -17,-8 -32,-8l-14 0 0 66zm162 133l0 -251 154 0 0 55 -88 0 0 43 83 0 0 54 -83 0 0 43 88 0 0 56 -154 0z"/>
      <path class="fil5" d="M9156 2296l0 -194 53 0 0 76 70 0 0 -76 53 0 0 194 -53 0 0 -79 -70 0 0 79 -53 0zm217 0l0 -194 118 0 0 43 -67 0 0 33 64 0 0 42 -64 0 0 33 67 0 0 43 -118 0zm153 0l0 -194 55 0c22,0 37,1 46,3 8,2 15,6 22,10 7,6 12,12 16,21 3,8 5,17 5,27 0,15 -3,27 -11,36 -7,10 -18,16 -32,19l53 78 -60 0 -44 -76 0 76 -50 0zm50 -102l10 0c11,0 19,-2 24,-6 6,-4 8,-10 8,-18 0,-10 -2,-17 -7,-21 -5,-4 -13,-6 -25,-6l-10 0 0 51zm124 102l0 -194 118 0 0 43 -67 0 0 33 64 0 0 42 -64 0 0 33 67 0 0 43 -118 0z"/>
     </g>
     <g>
      <polygon class="fil6" points="8180,1926 8363,1801 8546,1676 8546,1926 8546,2176 8363,2051 "/>
      <polygon class="fil6" points="8180,1926 8363,1801 8546,1676 8546,1926 "/>
      <g>
       <path class="fil7" d="M9476 910c561,0 1015,455 1015,1016 0,561 -454,1016 -1015,1016l0 -466c304,0 550,-246 550,-550 0,-304 -246,-550 -550,-550l0 -466z"/>
       <path class="fil8" d="M9476 910c561,0 1015,455 1015,1016 0,330 -157,624 -402,809l-281 -370c133,-101 218,-260 218,-439 0,-304 -246,-550 -550,-550l0 -466z"/>
       <path class="fil7" d="M9476 910c259,0 496,98 675,258l-309 347c-98,-87 -226,-139 -366,-139l0 -466z"/>
       <g>
        <path class="fil6" d="M9476 965c530,0 960,430 960,961 0,531 -430,961 -960,961 -531,0 -961,-430 -961,-961 0,-531 430,-961 961,-961zm0 411c304,0 550,246 550,550 0,304 -246,550 -550,550 -304,0 -551,-246 -551,-550 0,-304 247,-550 551,-550z"/>
        <path class="fil9" d="M10056 2691l-248 -326c133,-101 218,-260 218,-439 0,-304 -246,-550 -550,-550l0 -411c530,0 960,430 960,961 0,312 -149,590 -380,765z"/>
        <path class="fil10" d="M10115 1209l-273 306c-98,-87 -226,-139 -366,-139l0 -411c245,0 469,92 639,244z"/>
        <path class="fil6" d="M9476 965l0 411c-304,0 -551,246 -551,550l-410 0c0,-531 430,-961 961,-961z"/>
       </g>
       <path class="fil10" d="M9476 965c530,0 960,430 960,961 0,531 -430,961 -960,961l0 -411c304,0 550,-246 550,-550 0,-304 -246,-550 -550,-550l0 -411z"/>
       <path class="fil11" d="M10056 2691l-248 -326c133,-101 218,-260 218,-439 0,-304 -246,-550 -550,-550l0 -411c530,0 960,430 960,961 0,312 -149,590 -380,765z"/>
       <path class="fil10" d="M10115 1209l-273 306c-98,-87 -226,-139 -366,-139l0 -411c245,0 469,92 639,244z"/>
       <path class="fil3" d="M9476 1208c396,0 718,321 718,718 0,397 -322,718 -718,718 -397,0 -718,-321 -718,-718 0,-397 321,-718 718,-718zm0 168c304,0 550,246 550,550 0,304 -246,550 -550,550 -304,0 -551,-246 -551,-550 0,-304 247,-550 551,-550z"/>
       <path class="fil12" d="M9476 1208c396,0 718,321 718,718 0,397 -322,718 -718,718l0 -168c304,0 550,-246 550,-550 0,-304 -246,-550 -550,-550l0 -168z"/>
       <path class="fil13" d="M9476 1289c351,0 636,285 636,637 0,352 -285,637 -636,637 -352,0 -637,-285 -637,-637 0,-352 285,-637 637,-637zm0 87c304,0 550,246 550,550 0,304 -246,550 -550,550 -304,0 -551,-246 -551,-550 0,-304 247,-550 551,-550z"/>
       <path class="fil14" d="M9476 1289c351,0 636,285 636,637 0,352 -285,637 -636,637l0 -87c304,0 550,-246 550,-550 0,-304 -246,-550 -550,-550l0 -87z"/>
      </g>
     </g>
    </g>
    <g>
     <path class="fil14" d="M8220 2447l0 140c0,18 -14,32 -31,32l0 0c-18,0 -32,-14 -32,-32l0 -140 0 -7 0 -142 -13 0 0 139c0,10 -8,19 -18,19l0 0c-11,0 -19,-9 -19,-19l0 -175 0 0 0 0 0 0 0 -5c0,-3 1,-6 3,-9 5,-13 19,-23 34,-23l13 0 0 0 145 0 0 0 15 0c20,0 36,17 36,37l0 0c0,2 0,5 -1,7l0 168c0,10 -8,19 -18,19l0 0c-10,0 -18,-9 -18,-19l0 -139 -14 0 0 142 0 7 0 140c0,18 -14,32 -32,32l0 0c-17,0 -31,-14 -31,-32l0 -140 -19 0z"/>
     <path class="fil14" d="M8230 2125c24,0 43,19 43,42 0,24 -19,43 -43,43 -23,0 -42,-19 -42,-43 0,-23 19,-42 42,-42z"/>
    </g>
   </g>
   <polygon class="fil3" points="6316,6481 10876,6481 10876,6608 6316,6608 "/>
   <polygon class="fil3" points="9452,5637 9553,5637 9553,6608 9452,6608 "/>
   <polygon class="fil3" points="8134,5689 8244,5718 7649,9137 7540,9108 "/>
   <path class="fil3" d="M14091 7950l0 -596 -131 2 0 591c0,322 -263,586 -585,586l-2063 0 0 133 2063 0c393,0 716,-322 716,-716z"/>
   <path class="fil3" d="M14091 7950l0 -596 -131 2 0 591c0,322 -263,586 -585,586l-2063 0 0 133 2063 0c393,0 716,-322 716,-716z"/>
   <polygon class="fil3" points="9060,6508 9189,6508 9189,8653 9060,8653 "/>
   <g>
    <path class="fil4" d="M10051 9104c357,0 647,54 647,122 0,67 -290,122 -647,122 -358,0 -648,-55 -648,-122 0,-68 290,-122 648,-122z"/>
    <g>
     <path class="fil15" d="M9870 7298c-532,0 -963,432 -963,964 0,108 18,212 51,310l0 0 -333 654 1243 0 2 0 3 0 5 0 0 0c529,-4 956,-434 956,-964 0,-532 -431,-964 -964,-964z"/>
     <path class="fil16" d="M9874 9226l4 0 0 0c529,-4 956,-434 956,-964 0,-531 -429,-962 -960,-964l0 1928z"/>
     <path class="fil3" d="M9874 7391c482,0 873,391 873,873 0,482 -391,873 -873,873 -482,0 -873,-391 -873,-873 0,-482 391,-873 873,-873z"/>
     <path class="fil12" d="M9874 7391c482,0 873,391 873,873 0,482 -391,873 -873,873l0 -1746z"/>
     <path class="fil17" d="M9874 7434c458,0 830,372 830,830 0,458 -372,829 -830,829 -458,0 -830,-371 -830,-829 0,-458 372,-830 830,-830z"/>
     <path class="fil18" d="M9874 7434c458,0 830,372 830,830 0,458 -372,829 -830,829l0 -1659z"/>
     <path class="fil19" d="M9874 7434c458,0 830,372 830,830 0,458 -372,829 -830,829l0 -1659z"/>
     <g>
      <g>
       <path class="fil20" d="M9439 8079l0 -133 -103 -160 92 0 40 76c0,0 0,1 1,2 4,8 7,15 8,23 2,-7 5,-14 9,-22 1,-2 1,-3 2,-3l39 -76 91 0 -102 160 0 133 -77 0zm486 -146c0,22 -4,41 -11,60 -8,18 -19,35 -34,49 -15,15 -32,26 -51,33 -20,8 -40,12 -60,12 -21,0 -41,-4 -60,-12 -19,-7 -36,-18 -51,-33 -15,-14 -26,-31 -34,-50 -8,-18 -12,-38 -12,-59 0,-20 4,-40 12,-59 8,-18 19,-35 34,-49 15,-15 32,-26 51,-34 19,-7 39,-11 60,-11 21,0 41,4 60,11 19,8 36,19 51,34 14,14 26,31 34,49 7,19 11,39 11,59zm-156 87c22,0 40,-9 55,-25 14,-16 21,-37 21,-62 0,-24 -7,-45 -22,-61 -14,-16 -33,-25 -54,-25 -22,0 -41,9 -55,25 -15,16 -22,37 -22,61 0,26 7,46 21,62 15,16 33,25 56,25zm205 -234l79 0 0 143c0,21 1,36 2,45 1,9 3,17 5,23 3,7 9,13 16,17 8,4 17,6 28,6 11,0 20,-2 28,-6 7,-4 13,-10 16,-17 2,-6 4,-14 5,-23 1,-9 2,-24 2,-45l0 -20 0 -123 79 0 0 155c0,32 -2,56 -6,71 -3,16 -10,29 -19,40 -10,11 -24,20 -41,26 -18,6 -39,9 -64,9 -25,0 -46,-3 -64,-9 -17,-6 -31,-15 -41,-26 -9,-11 -16,-24 -20,-40 -3,-15 -5,-39 -5,-71l0 -30 0 -125z"/>
       <path class="fil20" d="M9468 8328l92 0 -35 -112c-1,-3 -3,-9 -4,-16 -2,-8 -5,-18 -8,-29 -2,8 -4,16 -5,23 -2,8 -4,15 -6,22l-34 112zm-130 127l117 -339 116 0 117 339 -92 0 -17 -61 -131 0 -18 61 -92 0zm383 0l0 -339 96 0c38,0 65,1 79,5 15,3 28,9 39,17 12,10 22,21 28,36 7,14 10,30 10,47 0,26 -6,48 -19,64 -13,17 -32,28 -57,33l93 137 -105 0 -78 -133 0 133 -86 0zm86 -179l17 0c20,0 35,-3 44,-10 9,-7 14,-18 14,-32 0,-17 -4,-29 -13,-36 -9,-8 -23,-11 -43,-11l-19 0 0 89zm218 179l0 -339 208 0 0 74 -118 0 0 59 111 0 0 73 -111 0 0 57 118 0 0 76 -208 0z"/>
       <path class="fil20" d="M9338 8748l0 -261 71 0 0 101 95 0 0 -101 72 0 0 261 -72 0 0 -107 -95 0 0 107 -71 0zm293 0l0 -261 160 0 0 57 -90 0 0 45 85 0 0 56 -85 0 0 44 90 0 0 59 -160 0zm207 0l0 -261 75 0c29,0 49,1 61,4 11,2 21,7 29,13 10,7 17,16 22,27 5,11 8,24 8,37 0,20 -5,37 -15,49 -10,13 -25,21 -44,25l71 106 -80 0 -60 -103 0 103 -67 0zm67 -138l13 0c16,0 27,-3 34,-8 7,-5 10,-13 10,-24 0,-14 -3,-23 -9,-28 -7,-6 -18,-9 -34,-9l-14 0 0 69zm167 138l0 -261 161 0 0 57 -91 0 0 45 85 0 0 56 -85 0 0 44 91 0 0 59 -161 0z"/>
      </g>
      <path class="fil20" d="M10287 8114l0 -334 119 0 0 334 -119 0zm-5 104c0,-19 6,-34 19,-46 12,-13 27,-19 45,-19 19,0 34,6 47,18 12,13 18,28 18,47 0,18 -6,33 -19,46 -12,12 -28,18 -46,18 -18,0 -33,-6 -45,-18 -13,-13 -19,-28 -19,-46z"/>
     </g>
    </g>
    <g>
     <path class="fil14" d="M8468 9609l0 102c0,18 -15,32 -32,32l0 0c-17,0 -31,-14 -31,-32l0 -102 -37 0 37 -130 0 -57c-3,0 -5,0 -8,-1l-44 140c-4,11 -15,17 -26,14l0 0c-10,-4 -16,-15 -13,-26l53 -167c1,-3 2,-5 3,-6 5,-15 18,-26 35,-27l0 0 144 0 0 0 1 0c20,0 35,15 37,34l52 166c4,11 -2,22 -13,26l0 0c-11,3 -22,-3 -25,-14l-45 -139c-2,0 -4,0 -6,0l-1 0 0 57 36 130 -36 0 0 102c0,18 -14,32 -31,32l0 0c-18,0 -32,-14 -32,-32l0 -102 -18 0z"/>
     <path class="fil14" d="M8477 9249c23,0 42,19 42,42 0,24 -19,43 -42,43 -24,0 -43,-19 -43,-43 0,-23 19,-42 43,-42z"/>
    </g>
   </g>
   <polygon class="fil3" points="11996,4764 9755,4764 8780,4469 8583,4239 9793,4617 11935,4617 "/>
   <polygon class="fil3" points="10637,4714 10763,4714 10763,5378 10637,5378 "/>
   <polygon class="fil3" points="1425,7175 1538,7175 1538,8952 1425,8952 "/>
   <polygon class="fil3" points="400,7843 1538,7843 1538,7969 400,7969 "/>
   <polygon class="fil3" points="1498,8152 3411,8341 3400,8451 1487,8262 "/>
   <path class="fil3" d="M4885 4308l0 722 157 -3 0 -715c0,-390 319,-709 709,-709l2497 0 0 -161 -2497 0c-476,0 -866,390 -866,866z"/>
   <g>
    <path class="fil4" d="M6770 5220c214,0 388,55 388,122 0,68 -174,122 -388,122 -215,0 -389,-54 -389,-122 0,-67 174,-122 389,-122z"/>
    <g>
     <path class="fil14" d="M7382 3780l0 0c0,-334 -273,-607 -607,-607l0 0c-334,0 -607,273 -607,607l0 0c0,16 0,31 2,47l0 0c36,495 529,1128 597,1212 0,12 8,12 8,0 231,-289 607,-881 607,-1259zm-607 -285c158,0 287,129 287,287 0,159 -129,288 -287,288 -159,0 -287,-129 -287,-288 0,-158 128,-287 287,-287z"/>
     <path class="fil21" d="M7382 3780l0 0c0,-334 -273,-607 -607,-607l0 322c158,0 287,129 287,287 0,159 -129,288 -287,288l0 969c231,-289 607,-881 607,-1259z"/>
     <path class="fil22" d="M7565 3680l0 0c0,-434 -356,-790 -790,-790l0 0c-435,0 -790,356 -790,790l0 0c0,21 1,41 2,61l0 0c47,645 689,1468 778,1578 0,16 10,15 10,0 301,-376 790,-1147 790,-1639zm-790 -370c206,0 374,167 374,373 0,207 -168,374 -374,374 -207,0 -374,-167 -374,-374 0,-206 167,-373 374,-373z"/>
     <path class="fil23" d="M7565 3680l0 0c0,-434 -356,-790 -790,-790l0 420c206,0 374,167 374,373 0,207 -168,374 -374,374l0 1262c301,-376 790,-1147 790,-1639z"/>
     <path class="fil3" d="M6775 3247c241,0 436,196 436,436 0,241 -195,437 -436,437 -241,0 -436,-196 -436,-437 0,-240 195,-436 436,-436zm0 63c206,0 374,167 374,373 0,207 -168,374 -374,374 -207,0 -374,-167 -374,-374 0,-206 167,-373 374,-373z"/>
     <path class="fil12" d="M6775 3247c241,0 436,196 436,436 0,241 -195,437 -436,437l0 -63c206,0 374,-167 374,-374 0,-206 -168,-373 -374,-373l0 -63z"/>
     <g>
      <path class="fil20" d="M6585 4385l0 -74 -56 -87 50 0 22 41c0,1 0,1 0,2 3,4 4,8 5,12 1,-4 2,-8 5,-12 0,-1 0,-1 1,-2l21 -41 50 0 -56 87 0 74 -42 0zm266 -80c0,11 -2,22 -6,32 -4,10 -10,19 -19,27 -8,8 -17,14 -28,18 -10,5 -21,7 -32,7 -12,0 -23,-2 -33,-7 -11,-4 -20,-10 -28,-18 -8,-8 -14,-17 -19,-27 -4,-10 -6,-21 -6,-32 0,-12 2,-23 6,-33 5,-10 11,-19 19,-27 8,-8 17,-14 28,-18 10,-4 21,-6 33,-6 11,0 22,2 33,6 10,4 19,10 27,18 9,8 15,17 19,27 4,10 6,21 6,33zm-85 47c12,0 22,-5 30,-14 8,-8 12,-20 12,-33 0,-14 -4,-25 -12,-34 -8,-9 -18,-13 -30,-13 -12,0 -23,4 -30,13 -8,9 -12,20 -12,34 0,13 4,25 11,34 8,8 18,13 31,13zm112 -128l43 0 0 78c0,12 1,20 1,25 1,5 2,9 3,12 2,5 5,8 9,10 4,2 9,3 15,3 6,0 11,-1 15,-3 5,-2 7,-5 9,-10 2,-3 3,-7 3,-12 1,-5 1,-13 1,-25l0 -11 0 -67 44 0 0 85c0,18 -1,31 -4,39 -2,8 -5,15 -10,21 -6,7 -13,12 -23,15 -9,3 -21,5 -35,5 -13,0 -25,-2 -35,-5 -9,-3 -17,-8 -22,-15 -5,-6 -9,-13 -11,-21 -2,-8 -3,-21 -3,-39l0 -17 0 -68z"/>
      <path class="fil20" d="M6601 4521l50 0 -19 -61c0,-2 -1,-5 -2,-9 -1,-5 -3,-10 -4,-16 -1,4 -2,8 -3,13 -1,4 -3,8 -4,12l-18 61zm-71 69l64 -186 63 0 65 186 -51 0 -9 -33 -72 0 -10 33 -50 0zm209 0l0 -186 53 0c21,0 35,1 44,3 8,2 15,5 21,10 6,5 12,11 15,19 4,8 6,17 6,26 0,15 -4,26 -11,35 -7,9 -17,15 -31,18l51 75 -58 0 -42 -72 0 72 -48 0zm48 -98l9 0c11,0 19,-2 24,-5 5,-4 8,-10 8,-18 0,-9 -3,-16 -7,-20 -5,-4 -13,-6 -24,-6l-10 0 0 49zm119 98l0 -186 114 0 0 41 -65 0 0 33 61 0 0 39 -61 0 0 32 65 0 0 41 -114 0z"/>
      <path class="fil20" d="M6530 4751l0 -143 39 0 0 55 52 0 0 -55 39 0 0 143 -39 0 0 -58 -52 0 0 58 -39 0zm160 0l0 -143 88 0 0 31 -50 0 0 25 47 0 0 31 -47 0 0 24 50 0 0 32 -88 0zm114 0l0 -143 41 0c15,0 27,0 33,2 6,1 12,4 16,7 5,4 9,9 12,15 3,6 4,13 4,20 0,11 -3,20 -8,27 -5,7 -13,12 -24,14l39 58 -44 0 -33 -56 0 56 -36 0zm36 -76l8 0c8,0 14,-1 18,-4 4,-3 6,-7 6,-13 0,-8 -2,-13 -6,-16 -3,-3 -9,-4 -18,-4l-8 0 0 37zm92 76l0 -143 88 0 0 31 -50 0 0 25 47 0 0 31 -47 0 0 24 50 0 0 32 -88 0z"/>
     </g>
    </g>
    <g>
     <path class="fil14" d="M6189 5189l0 141c0,17 -14,31 -31,31l0 0c-18,0 -32,-14 -32,-31l0 -141 0 -6 0 -143 -13 0 0 139c0,11 -8,19 -18,19l0 0c-11,0 -19,-8 -19,-19l0 -175 0 0 0 0 0 0 0 -4c0,-4 1,-7 3,-10 5,-13 18,-23 34,-23l13 0 0 0 145 0 0 0 15 0c20,0 36,17 36,37l0 0c0,2 0,5 -1,7l0 168c0,11 -8,19 -18,19l0 0c-10,0 -18,-8 -18,-19l0 -139 -14 0 0 143 0 6 0 141c0,17 -14,31 -32,31l0 0c-17,0 -31,-14 -31,-31l0 -141 -19 0z"/>
     <path class="fil14" d="M6199 4867c24,0 43,19 43,42 0,24 -19,43 -43,43 -23,0 -42,-19 -42,-43 0,-23 19,-42 42,-42z"/>
    </g>
   </g>
   <polygon class="fil3" points="9104,7298 7967,7049 7992,6935 9129,7184 "/>
   <polygon class="fil3" points="3406,2064 3283,2019 2516,4109 2638,4154 "/>
   <g>
    <g>
     <path class="fil24" d="M1769 4767c370,0 670,55 670,122 0,68 -300,122 -670,122 -370,0 -670,-54 -670,-122 0,-67 300,-122 670,-122z"/>
     <g>
      <g>
       <polygon class="fil19" points="3160,3925 2891,4090 2621,4255 2621,3925 2621,3595 2891,3760 "/>
       <path class="fil19" d="M1769 4887l4 0 0 0c529,-4 956,-434 956,-964 0,-531 -429,-962 -960,-963l0 1927z"/>
       <path class="fil3" d="M1769 3052c482,0 873,391 873,873 0,482 -391,873 -873,873 -482,0 -873,-391 -873,-873 0,-482 391,-873 873,-873z"/>
       <path class="fil12" d="M1769 3052c482,0 873,391 873,873 0,482 -391,873 -873,873l0 -1746z"/>
       <path class="fil17" d="M1769 3095c458,0 830,372 830,830 0,458 -372,830 -830,830 -458,0 -830,-372 -830,-830 0,-458 372,-830 830,-830z"/>
       <path class="fil18" d="M1769 3095c458,0 830,372 830,830 0,458 -372,830 -830,830l0 -1660z"/>
       <path class="fil19" d="M1769 3095c458,0 830,372 830,830 0,458 -372,830 -830,830l0 -1660z"/>
      </g>
      <g>
       <path class="fil20" d="M1422 3746l0 -129 -99 -154 88 0 38 73c1,0 1,1 2,2 4,8 6,15 8,22 1,-7 4,-14 8,-21 1,-2 1,-3 2,-3l37 -73 89 0 -99 154 0 129 -74 0zm470 -141c0,21 -4,40 -11,57 -7,18 -18,34 -33,48 -14,14 -31,25 -49,33 -19,7 -38,11 -58,11 -20,0 -40,-4 -58,-11 -19,-8 -35,-19 -49,-33 -15,-14 -26,-30 -33,-48 -8,-18 -12,-37 -12,-57 0,-20 4,-39 12,-57 7,-18 18,-34 33,-48 14,-14 30,-25 49,-32 18,-8 38,-12 58,-12 20,0 39,4 58,12 19,7 35,18 49,32 14,14 25,30 33,48 7,18 11,37 11,57zm-151 83c21,0 39,-7 53,-23 14,-16 21,-36 21,-60 0,-24 -7,-43 -21,-59 -15,-16 -32,-24 -53,-24 -22,0 -39,8 -53,24 -14,15 -21,35 -21,59 0,24 6,44 20,60 14,16 32,23 54,23zm198 -225l77 0 0 138c0,20 0,35 1,43 2,9 3,17 6,23 3,7 8,12 15,16 8,4 17,6 27,6 11,0 20,-2 27,-6 7,-4 12,-9 16,-16 2,-6 4,-14 5,-23 1,-8 1,-23 1,-43l0 -20 0 -118 77 0 0 150c0,31 -2,54 -5,69 -4,14 -10,27 -19,37 -10,12 -23,20 -40,26 -17,6 -38,9 -62,9 -24,0 -45,-3 -61,-9 -17,-6 -31,-14 -40,-26 -9,-10 -15,-23 -19,-37 -4,-15 -6,-38 -6,-69l0 -30 0 -120z"/>
       <path class="fil20" d="M1449 3987l89 0 -33 -108c-1,-4 -2,-9 -4,-16 -2,-8 -4,-17 -7,-28 -2,8 -4,15 -6,23 -2,7 -4,14 -6,21l-33 108zm-125 123l113 -329 112 0 114 329 -89 0 -17 -59 -127 0 -17 59 -89 0zm370 0l0 -329 94 0c37,0 62,2 76,5 15,4 27,9 38,17 12,9 21,21 27,35 6,14 10,29 10,46 0,25 -7,46 -19,62 -13,16 -31,26 -55,31l90 133 -101 0 -76 -129 0 129 -84 0zm84 -173l17 0c19,0 33,-4 42,-10 9,-7 13,-17 13,-31 0,-17 -4,-28 -12,-35 -8,-7 -22,-11 -42,-11l-18 0 0 87zm211 173l0 -329 201 0 0 72 -114 0 0 57 107 0 0 71 -107 0 0 55 114 0 0 74 -201 0z"/>
       <path class="fil20" d="M1324 4393l0 -253 69 0 0 99 92 0 0 -99 69 0 0 253 -69 0 0 -103 -92 0 0 103 -69 0zm284 0l0 -253 155 0 0 56 -88 0 0 44 82 0 0 54 -82 0 0 43 88 0 0 56 -155 0zm200 0l0 -253 72 0c28,0 48,2 59,4 11,3 21,7 29,13 9,7 16,16 21,27 5,10 7,22 7,35 0,20 -5,36 -14,48 -10,12 -24,20 -42,24l69 102 -78 0 -58 -99 0 99 -65 0zm65 -133l12 0c15,0 26,-3 33,-8 7,-5 10,-13 10,-24 0,-12 -3,-21 -9,-27 -7,-5 -17,-8 -32,-8l-14 0 0 67zm162 133l0 -253 155 0 0 56 -88 0 0 44 83 0 0 54 -83 0 0 43 88 0 0 56 -155 0z"/>
      </g>
     </g>
    </g>
    <g>
     <path class="fil14" d="M3386 3937l0 102c0,18 -14,32 -31,32l0 0c-17,0 -31,-14 -31,-32l0 -102 -37 0 37 -130 0 -57c-3,0 -5,-1 -8,-1l-44 140c-4,11 -15,17 -26,13l0 0c-11,-3 -17,-15 -13,-25l53 -168c1,-2 2,-4 3,-6 5,-15 18,-26 35,-26l0 0 144 0 0 0 1 0c19,0 35,15 37,34l52 166c4,10 -2,22 -13,25l0 0c-11,4 -22,-2 -26,-13l-44 -140c-2,1 -4,1 -6,1l-1 0 0 57 36 130 -36 0 0 102c0,18 -14,32 -31,32l0 0c-18,0 -32,-14 -32,-32l0 -102 -19 0z"/>
     <path class="fil14" d="M3396 3577c23,0 42,19 42,42 0,24 -19,43 -42,43 -24,0 -43,-19 -43,-43 0,-23 19,-42 43,-42z"/>
    </g>
    <g>
     <path class="fil14" d="M3715 3899l0 140c0,18 -14,32 -32,32l0 0c-17,0 -31,-14 -31,-32l0 -140 0 -7 0 -142 -13 0 0 139c0,10 -8,18 -19,18l0 0c-10,0 -18,-8 -18,-18l0 -176 0 0 0 0 0 0 0 -4c0,-3 1,-7 3,-9 5,-14 18,-23 34,-23l13 0 0 0 145 0 0 0 15 0c20,0 36,16 36,36l0 0c0,3 0,6 -1,8l0 168c0,10 -8,18 -18,18l0 0c-10,0 -18,-8 -18,-18l0 -139 -14 0 0 142 0 7 0 140c0,18 -14,32 -32,32l0 0c-17,0 -31,-14 -31,-32l0 -140 -19 0z"/>
     <path class="fil14" d="M3725 3577c24,0 43,19 43,42 0,23 -19,42 -43,42 -23,0 -42,-19 -42,-42 0,-23 19,-42 42,-42z"/>
    </g>
   </g>
   <polygon class="fil3" points="14400,887 11822,887 11822,761 14400,761 "/>
   <polygon class="fil3" points="3265,5889 400,5889 400,5751 3265,5751 "/>
   <polygon class="fil3" points="2004,5859 2130,5859 2130,6996 2004,6996 "/>
   <polygon class="fil25" points="5634,10150 5520,10150 5520,9204 5634,9204 "/>
   <polygon class="fil3" points="12759,10150 12620,10150 12620,8599 12759,8599 "/>
   <polygon class="fil3" points="12021,5458 12149,5458 12149,7830 12021,7830 "/>
   <g>
    <g>
     <path class="fil4" d="M12874 7951c214,0 388,55 388,122 0,68 -174,123 -388,123 -215,0 -389,-55 -389,-123 0,-67 174,-122 389,-122z"/>
     <polygon class="fil26" points="12874,6513 11569,6513 11798,6072 12874,6072 13949,6072 14178,6513 "/>
     <polygon class="fil27" points="12874,6072 13949,6072 14178,6513 12874,6513 "/>
     <polygon class="fil28" points="12874,8073 12336,7073 11798,6072 12874,6072 13949,6072 13411,7073 "/>
     <polygon class="fil29" points="12874,6072 13949,6072 13411,7073 12874,8073 "/>
     <polygon class="fil3" points="12874,7843 12427,7011 11980,6180 12874,6180 13767,6180 13320,7011 "/>
     <polygon class="fil12" points="12874,6180 13767,6180 13320,7011 12874,7843 "/>
     <polygon class="fil30" points="12874,7715 12479,6980 12084,6246 12874,6246 13663,6246 13268,6980 "/>
     <polygon class="fil28" points="12874,6246 13663,6246 13268,6980 12874,7715 "/>
     <g>
      <g>
       <path class="fil20" d="M12660 6546l0 -85 -65 -101 58 0 25 48c0,0 0,0 0,1 3,5 5,10 6,14 1,-4 3,-8 5,-13 1,-1 1,-2 1,-2l25 -48 58 0 -65 101 0 85 -48 0zm308 -93c0,13 -2,26 -7,38 -5,11 -12,22 -22,31 -9,9 -20,16 -32,21 -12,5 -25,8 -38,8 -13,0 -26,-3 -38,-8 -12,-5 -23,-12 -32,-21 -10,-9 -17,-20 -22,-32 -5,-11 -8,-24 -8,-37 0,-13 3,-26 8,-37 5,-12 12,-23 22,-32 9,-9 20,-16 32,-21 12,-5 25,-7 38,-7 13,0 26,2 38,7 12,5 23,12 32,21 10,9 17,20 22,32 5,11 7,24 7,37zm-99 55c14,0 25,-6 35,-16 9,-10 13,-23 13,-39 0,-15 -4,-28 -14,-39 -9,-10 -21,-16 -34,-16 -14,0 -26,6 -35,16 -9,10 -14,23 -14,39 0,16 5,29 14,39 9,11 20,16 35,16zm130 -148l50 0 0 90c0,13 0,23 1,29 1,6 2,10 4,14 1,5 5,9 10,11 5,3 10,4 17,4 7,0 13,-1 18,-4 5,-2 8,-6 10,-11 2,-4 3,-8 4,-14 0,-6 1,-16 1,-29l0 -13 0 -77 50 0 0 98c0,20 -1,35 -4,45 -2,10 -6,18 -12,25 -6,7 -15,13 -26,17 -11,4 -25,6 -41,6 -16,0 -29,-2 -40,-6 -11,-4 -20,-10 -26,-17 -6,-7 -10,-15 -13,-25 -2,-10 -3,-25 -3,-45l0 -19 0 -79z"/>
       <path class="fil20" d="M12678 6703l58 0 -22 -71c-1,-2 -1,-5 -3,-10 -1,-5 -2,-11 -4,-19 -1,6 -3,11 -4,16 -1,4 -2,9 -4,13l-21 71zm-83 81l75 -215 73 0 75 215 -59 0 -11 -39 -83 0 -11 39 -59 0zm243 0l0 -215 62 0c24,0 40,1 50,3 9,2 17,6 24,11 8,6 14,13 18,22 4,10 6,20 6,31 0,16 -4,30 -12,40 -8,11 -20,18 -36,21l59 87 -66 0 -50 -84 0 84 -55 0zm55 -114l11 0c13,0 22,-2 28,-6 6,-4 9,-11 9,-20 0,-11 -3,-19 -9,-23 -5,-5 -14,-7 -27,-7l-12 0 0 56zm138 114l0 -215 132 0 0 47 -75 0 0 37 71 0 0 46 -71 0 0 37 75 0 0 48 -132 0z"/>
       <path class="fil20" d="M12596 6970l0 -166 45 0 0 64 60 0 0 -64 45 0 0 166 -45 0 0 -68 -60 0 0 68 -45 0zm185 0l0 -166 102 0 0 36 -58 0 0 29 55 0 0 35 -55 0 0 28 58 0 0 38 -102 0zm132 0l0 -166 47 0c19,0 31,1 39,2 7,2 13,5 19,9 5,4 10,10 13,17 3,7 5,15 5,23 0,13 -3,24 -9,32 -7,8 -16,13 -28,16l45 67 -51 0 -38 -65 0 65 -42 0zm42 -88l9 0c9,0 16,-1 21,-5 4,-3 7,-8 7,-15 0,-9 -2,-15 -7,-18 -4,-4 -11,-5 -21,-5l-9 0 0 43zm106 88l0 -166 102 0 0 36 -58 0 0 29 55 0 0 35 -55 0 0 28 58 0 0 38 -102 0z"/>
      </g>
      <path class="fil20" d="M13198 6568l0 -212 75 0 0 212 -75 0zm-4 65c0,-11 4,-21 12,-29 8,-8 18,-12 29,-12 12,0 22,4 29,12 8,8 12,18 12,29 0,12 -4,21 -12,29 -8,8 -17,12 -29,12 -11,0 -21,-4 -29,-12 -8,-8 -12,-17 -12,-29z"/>
     </g>
    </g>
    <g>
     <path class="fil14" d="M13443 8020l0 102c0,17 -14,31 -31,31l0 0c-18,0 -32,-14 -32,-31l0 -102 -36 0 36 -130 0 -58c-2,0 -5,0 -7,0l-45 140c-3,10 -14,16 -25,13l0 0c-11,-3 -17,-15 -13,-26l53 -167c0,-2 1,-4 3,-6 4,-15 18,-26 34,-26l0 -1 145 0 0 1 1 0c19,0 35,15 36,33l53 166c3,11 -3,23 -13,26l0 0c-11,3 -22,-3 -26,-13l-44 -140c-2,0 -4,0 -6,0l-1 0 0 58 36 130 -36 0 0 102c0,17 -14,31 -32,31l0 0c-17,0 -31,-14 -31,-31l0 -102 -19 0z"/>
     <path class="fil14" d="M13452 7659c24,0 43,19 43,43 0,23 -19,42 -43,42 -23,0 -42,-19 -42,-42 0,-24 19,-43 42,-43z"/>
    </g>
   </g>
   <polygon class="fil31" points="6667,6079 7512,6016 7512,6305 6680,6305 "/>
   <polygon class="fil31" points="10473,6142 10448,5814 9780,5877 9780,6116 "/>
   <path class="fil31" d="M11976 2545c170,0 309,138 309,309 0,170 -139,308 -309,308 -171,0 -309,-138 -309,-308 0,-171 138,-309 309,-309z"/>
   <polygon class="fil31" points="1828,5373 2647,5373 2647,5650 1828,5650 "/>
   <polygon class="fil31" points="1122,5990 1853,5990 1853,6255 1122,6255 "/>
   <polygon class="fil31" points="12502,8738 12036,8738 12036,9040 12502,9040 "/>
   <polygon class="fil31" points="12502,9217 12269,9217 12269,9721 12502,9721 "/>
   <polygon class="fil3" points="2571,1781 2408,1781 2408,350 2571,350 "/>
   <polygon class="fil3" points="2222,8243 2332,8243 2332,8934 2222,8934 "/>
   <polygon class="fil3" points="13661,761 13810,761 13810,2715 13661,2715 "/>
   <polygon class="fil3" points="13977,2714 14090,2714 14090,5209 13977,5209 "/>
   <polygon class="fil3" points="2571,849 400,849 400,710 2571,710 "/>
   <polygon class="fil3" points="5262,5407 5386,5439 4462,9030 4338,8998 "/>
   <g>
    <g>
     <path class="fil14" d="M4552 8509l0 140c0,17 -14,31 -32,31l0 0c-17,0 -31,-14 -31,-31l0 -140 0 -7 0 -143 -13 0 0 140c0,10 -9,18 -19,18l0 0c-10,0 -18,-8 -18,-18l0 -176 0 0 0 0 0 0 0 -4c0,-4 1,-7 3,-10 5,-13 18,-22 33,-22l14 0 0 -1 145 0 0 1 15 0c20,0 36,16 36,36l0 0c0,3 0,5 -1,7l0 169c0,10 -8,18 -18,18l0 0c-10,0 -18,-8 -18,-18l0 -140 -14 0 0 143 0 7 0 140c0,17 -15,31 -32,31l0 0c-17,0 -31,-14 -31,-31l0 -140 -19 0z"/>
     <path class="fil14" d="M4562 8186c23,0 42,19 42,43 0,23 -19,42 -42,42 -23,0 -42,-19 -42,-42 0,-24 19,-43 42,-43z"/>
    </g>
    <path class="fil24" d="M5124 8517c214,0 388,55 388,122 0,68 -174,122 -388,122 -215,0 -389,-54 -389,-122 0,-67 174,-122 389,-122z"/>
    <path class="fil6" d="M5938 6920l0 0c0,-448 -366,-815 -814,-815l0 0c-449,0 -815,367 -815,815l0 0c0,21 1,42 2,63l0 0c49,665 711,1513 802,1627 0,16 11,16 11,0 310,-388 814,-1183 814,-1690zm-814 1318l0 0 0 0 -1 0 0 0c-8,-13 -194,-291 -239,-425 -16,-47 45,17 83,24 70,14 153,17 157,18 3,-1 86,-4 156,-18 38,-7 99,-71 83,-24 -45,134 -231,412 -239,425z"/>
    <path class="fil32" d="M5938 6920l0 0c0,-448 -366,-815 -814,-815l0 1750c3,-1 86,-4 156,-18 38,-7 99,-71 83,-24 -45,134 -231,412 -239,425l0 0 0 0 0 372c310,-388 814,-1183 814,-1690z"/>
    <path class="fil25" d="M5124 6226c390,0 706,317 706,707 0,390 -316,706 -706,706 -391,0 -707,-316 -707,-706 0,-390 316,-707 707,-707z"/>
    <path class="fil12" d="M5124 6226c390,0 706,317 706,707 0,390 -316,706 -706,706l0 -1413z"/>
    <path class="fil10" d="M5124 6284c358,0 648,291 648,649 0,358 -290,648 -648,648 -359,0 -649,-290 -649,-648 0,-358 290,-649 649,-649z"/>
    <path class="fil7" d="M5124 6284c358,0 648,291 648,649 0,358 -290,648 -648,648l0 -1297z"/>
    <g>
     <path class="fil20" d="M4837 6780l0 -110 -85 -132 76 0 33 62c0,1 0,1 1,2 3,7 6,13 7,19 1,-5 3,-11 7,-18 1,-1 1,-2 1,-3l33 -62 76 0 -85 132 0 110 -64 0zm402 -120c0,17 -3,33 -10,49 -6,15 -15,28 -27,40 -13,12 -27,22 -43,28 -16,6 -32,10 -49,10 -18,0 -34,-4 -50,-10 -16,-6 -30,-16 -42,-28 -12,-12 -22,-25 -28,-41 -6,-15 -10,-31 -10,-48 0,-18 4,-34 10,-49 6,-15 16,-29 28,-41 12,-12 26,-21 42,-28 16,-6 32,-9 50,-9 17,0 34,3 49,9 16,7 30,16 43,28 12,12 21,25 27,41 7,15 10,31 10,49zm-129 71c18,0 33,-7 45,-20 12,-14 18,-31 18,-51 0,-21 -6,-38 -18,-51 -12,-14 -27,-20 -45,-20 -19,0 -34,6 -46,20 -12,13 -18,30 -18,51 0,20 6,37 18,51 12,13 27,20 46,20zm169 -193l66 0 0 118c0,17 0,30 1,37 1,8 2,14 5,19 2,6 7,11 13,14 6,4 14,5 23,5 9,0 16,-1 23,-5 6,-3 10,-8 13,-14 2,-5 4,-11 4,-19 1,-7 2,-20 2,-37l0 -17 0 -101 65 0 0 128c0,27 -1,46 -4,59 -4,13 -9,23 -17,32 -8,10 -19,17 -34,22 -14,5 -32,8 -52,8 -21,0 -38,-3 -53,-8 -14,-5 -26,-12 -34,-22 -7,-9 -13,-19 -16,-32 -3,-13 -5,-32 -5,-59l0 -25 0 -103z"/>
     <path class="fil20" d="M4861 6986l76 0 -29 -93c-1,-2 -2,-7 -3,-13 -2,-7 -4,-15 -6,-24 -2,6 -4,13 -5,19 -2,7 -3,13 -5,18l-28 93zm-107 105l96 -281 96 0 97 281 -76 0 -14 -51 -109 0 -14 51 -76 0zm316 0l0 -281 80 0c31,0 53,2 65,4 13,3 23,8 32,15 10,8 18,17 24,29 5,12 8,25 8,40 0,21 -6,39 -16,52 -11,14 -27,23 -47,28l76 113 -86 0 -64 -110 0 110 -72 0zm72 -148l14 0c16,0 28,-3 36,-9 8,-5 11,-14 11,-26 0,-14 -3,-24 -10,-30 -7,-6 -19,-9 -36,-9l-15 0 0 74zm179 148l0 -281 172 0 0 62 -97 0 0 48 92 0 0 60 -92 0 0 48 97 0 0 63 -172 0z"/>
     <path class="fil20" d="M4754 7333l0 -216 59 0 0 84 78 0 0 -84 59 0 0 216 -59 0 0 -88 -78 0 0 88 -59 0zm242 0l0 -216 132 0 0 47 -75 0 0 38 71 0 0 46 -71 0 0 36 75 0 0 49 -132 0zm171 0l0 -216 62 0c24,0 41,1 50,3 10,2 18,6 25,11 7,6 13,14 18,23 4,9 6,19 6,30 0,17 -4,30 -12,41 -9,10 -21,17 -36,21l58 87 -66 0 -50 -85 0 85 -55 0zm55 -114l11 0c13,0 22,-2 28,-7 6,-4 9,-11 9,-20 0,-11 -3,-19 -8,-23 -6,-5 -15,-7 -28,-7l-12 0 0 57zm139 114l0 -216 132 0 0 47 -75 0 0 38 71 0 0 46 -71 0 0 36 75 0 0 49 -132 0z"/>
    </g>
    <g>
     <path class="fil14" d="M4255 8509l0 140c0,17 -14,31 -31,31l0 0c-18,0 -32,-14 -32,-31l0 -140 0 -7 0 -143 -13 0 0 140c0,10 -8,18 -18,18l0 0c-10,0 -19,-8 -19,-18l0 -176 0 0 0 0 0 0 0 -4c0,-4 1,-7 3,-10 6,-13 19,-22 34,-22l13 0 0 -1 145 0 0 1 15 0c20,0 36,16 36,36l0 0c0,3 0,5 0,7l0 169c0,10 -9,18 -19,18l0 0c-10,0 -18,-8 -18,-18l0 -140 -14 0 0 143 0 7 0 140c0,17 -14,31 -32,31l0 0c-17,0 -31,-14 -31,-31l0 -140 -19 0z"/>
     <path class="fil14" d="M4265 8186c24,0 43,19 43,43 0,23 -19,42 -43,42 -23,0 -42,-19 -42,-42 0,-24 19,-43 42,-43z"/>
    </g>
   </g>
  </g>
 </g>
</svg>
